<?xml version="1.0" standalone="no"?>
<!DOCTYPE svg PUBLIC "-//W3C//DTD SVG 20010904//EN"
 "http://www.w3.org/TR/2001/REC-SVG-20010904/DTD/svg10.dtd">
<svg version="1.0" xmlns="http://www.w3.org/2000/svg"
 width="1297.000000pt" height="611.000000pt" viewBox="0 0 1297.000000 611.000000"
 preserveAspectRatio="xMidYMid meet">

<g transform="translate(0.000000,611.000000) scale(0.100000,-0.100000)"
fill="#000000" stroke="none">
<path d="M0 3055 l0 -3055 6485 0 6485 0 0 3055 0 3055 -6485 0 -6485 0 0
-3055z m348 2908 c-16 -2 -40 -2 -55 0 -16 2 -3 4 27 4 30 0 43 -2 28 -4z
m117 -29 c17 -4 20 -12 17 -42 -6 -60 -62 -89 -62 -32 0 42 -28 40 -32 -2 l-3
-33 -77 -3 c-93 -3 -118 7 -119 51 l-2 32 -7 -35 c-7 -37 -14 -29 -24 29 -5
27 -3 32 9 27 8 -3 15 -1 15 4 0 11 249 14 285 4z m-135 -137 c52 0 105 3 118
7 16 5 22 3 22 -7 0 -8 -9 -17 -20 -20 -11 -3 -20 -1 -20 4 0 15 -30 10 -47
-7 -13 -13 -33 -15 -94 -12 -66 3 -81 7 -100 27 l-22 23 34 -7 c19 -4 77 -8
129 -8z m12020 -27 c0 -13 7 -20 20 -20 10 0 24 -9 30 -20 16 -30 -4 -60 -40
-60 -30 0 -30 0 -30 60 0 33 4 60 10 60 6 0 10 -9 10 -20z m170 -40 c0 -33 -4
-60 -10 -60 -6 0 -10 27 -10 60 0 33 4 60 10 60 6 0 10 -27 10 -60z m-282 43
c-14 -3 -18 -15 -18 -54 0 -27 -4 -49 -10 -49 -5 0 -10 22 -10 49 0 39 -4 51
-17 54 -10 3 2 5 27 5 25 0 37 -2 28 -5z m-12058 -59 c0 -47 -17 -43 -22 5 -2
28 0 37 9 34 7 -3 13 -20 13 -39z m300 6 c0 -30 -17 -50 -42 -50 -13 0 -18 8
-18 30 0 20 -5 30 -15 30 -10 0 -15 -10 -15 -29 0 -17 -6 -33 -12 -37 -20 -12
-158 -7 -174 7 -8 6 -14 26 -14 43 l0 31 145 0 145 0 0 -25z m11828 -13 c3
-38 3 -38 -30 -35 -42 4 -51 34 -14 44 14 3 26 11 26 16 0 6 -9 8 -20 5 -11
-3 -20 -1 -20 5 0 5 12 8 28 6 23 -3 27 -8 30 -41z m180 21 c3 -14 -3 -18 -27
-18 -24 0 -29 -4 -24 -16 4 -11 13 -14 32 -9 20 5 23 4 15 -5 -19 -20 -59 -8
-62 18 -2 13 -1 30 2 38 8 21 60 14 64 -8z m120 -21 c3 -38 3 -38 -30 -35 -42
4 -51 34 -14 44 14 3 23 10 20 16 -3 5 -12 7 -20 4 -8 -3 -14 -1 -14 5 0 6 12
9 28 7 23 -3 27 -8 30 -41z m-12258 -77 c52 0 53 -1 37 -17 -22 -22 -156 -25
-181 -4 -30 25 -18 34 37 27 28 -3 77 -6 107 -6z m120 1 c0 -6 -5 -13 -10 -16
-15 -9 -43 3 -35 15 8 13 45 13 45 1z m-84 -56 c6 -1 8 -18 6 -38 -4 -32 -7
-35 -44 -41 -49 -8 -134 2 -147 18 -5 6 -11 25 -14 41 l-4 30 -2 -32 c-1 -43
-21 -43 -21 0 l0 33 108 -4 c59 -2 112 -5 118 -7z m92 -22 c-3 -33 -7 -38 -29
-41 -24 -3 -27 1 -31 32 -3 29 0 36 17 39 45 9 46 8 43 -30z m7620 -1235 c17
-17 17 -339 0 -356 -17 -17 -2699 -17 -2716 0 -8 8 -12 62 -12 178 0 116 4
170 12 178 17 17 2699 17 2716 0z m0 -830 c17 -17 17 -339 0 -356 -17 -17
-2699 -17 -2716 0 -8 8 -12 62 -12 178 0 116 4 170 12 178 17 17 2699 17 2716
0z m0 -830 c17 -17 17 -339 0 -356 -17 -17 -2699 -17 -2716 0 -8 8 -12 62 -12
178 0 116 4 170 12 178 17 17 2699 17 2716 0z m-1558 -813 c19 -23 4 -65 -24
-65 -35 0 -52 25 -38 55 13 28 43 33 62 10z m188 -2 c-10 -2 -18 -11 -18 -19
0 -8 8 -15 18 -15 16 -1 16 -2 0 -6 -25 -6 -23 -43 2 -43 16 0 20 7 20 31 0
28 2 30 33 27 28 -3 32 -7 35 -35 4 -38 -15 -45 -20 -8 -2 14 -7 26 -13 26 -5
0 -11 -12 -13 -26 -3 -22 -8 -25 -48 -25 l-44 0 0 50 c0 50 0 50 33 49 17 -1
24 -3 15 -6z m189 1 c-3 -3 -12 -4 -19 -1 -8 3 -5 6 6 6 11 1 17 -2 13 -5z
m-299 -41 c12 -12 13 -18 4 -21 -6 -2 -12 -10 -12 -18 0 -8 -4 -14 -10 -14 -5
0 -10 6 -10 14 0 8 -5 16 -12 18 -9 3 -8 9 2 21 19 20 18 20 38 0z m232 0 c1
-17 1 -17 14 0 7 9 23 17 35 17 17 0 21 -6 21 -35 0 -44 -20 -47 -21 -2 l-1
32 -14 -32 c-18 -43 -38 -42 -51 2 -9 29 -9 35 3 35 8 0 14 -8 14 -17z m140
-18 c0 -32 -2 -35 -30 -35 -35 0 -43 29 -10 37 11 3 20 10 20 15 0 5 -10 6
-21 3 -15 -5 -19 -4 -15 4 4 6 18 11 32 11 21 0 24 -5 24 -35z m53 28 c-7 -2
-13 -18 -13 -34 0 -19 -5 -29 -15 -29 -10 0 -15 11 -15 35 0 32 3 35 28 34 15
0 21 -3 15 -6z m-487 -51 c16 -10 34 -48 27 -56 -3 -3 -37 -6 -75 -6 -61 0
-68 2 -68 19 0 38 80 67 116 43z"/>
<path d="M12357 5733 c-13 -12 -7 -53 7 -53 17 0 28 24 20 45 -7 16 -17 19
-27 8z"/>
<path d="M12265 5699 c-4 -6 -5 -13 -2 -16 7 -7 27 6 27 18 0 12 -17 12 -25
-2z"/>
<path d="M12440 5730 c0 -5 7 -10 15 -10 8 0 15 5 15 10 0 6 -7 10 -15 10 -8
0 -15 -4 -15 -10z"/>
<path d="M12565 5699 c-4 -6 -5 -13 -2 -16 7 -7 27 6 27 18 0 12 -17 12 -25
-2z"/>
<path d="M5522 4123 l2 -58 3 48 c4 43 6 47 20 35 15 -12 15 -11 2 10 -22 35
-29 26 -27 -35z"/>
<path d="M5601 4137 c-1 -36 -4 -46 -13 -41 -8 5 -7 0 2 -11 14 -17 15 -17 18
14 2 17 1 44 -1 59 -2 16 -5 8 -6 -21z"/>
<path d="M5647 4143 c-3 -5 8 -8 23 -8 15 0 26 3 23 8 -2 4 -13 7 -23 7 -10 0
-21 -3 -23 -7z"/>
<path d="M5768 4143 c6 -3 13 -21 13 -41 l2 -37 6 35 c9 50 38 53 44 6 l4 -36
-1 37 c-1 37 -2 38 -41 39 -22 1 -34 -1 -27 -3z"/>
<path d="M5876 4141 c-4 -5 3 -7 14 -4 23 6 26 13 6 13 -8 0 -17 -4 -20 -9z"/>
<path d="M5895 4120 l-30 -8 33 -1 c17 0 32 4 32 9 0 6 -1 9 -2 9 -2 -1 -16
-5 -33 -9z"/>
<path d="M5647 4078 c2 -5 13 -8 23 -8 10 0 21 3 23 8 3 4 -8 7 -23 7 -15 0
-26 -3 -23 -7z"/>
<path d="M5878 4078 c6 -6 18 -8 28 -6 14 3 12 5 -9 10 -19 3 -25 2 -19 -4z"/>
<path d="M6553 3300 c0 -36 2 -50 4 -32 2 17 2 47 0 65 -2 17 -4 3 -4 -33z"/>
<path d="M5978 3343 c6 -2 18 -2 25 0 6 3 1 5 -13 5 -14 0 -19 -2 -12 -5z"/>
<path d="M5939 3323 c-13 -16 -12 -17 4 -4 9 7 17 15 17 17 0 8 -8 3 -21 -13z"/>
<path d="M5521 3275 l2 -40 6 35 c5 28 11 35 28 34 12 0 20 3 17 8 -3 4 -16 7
-29 6 -22 -2 -25 -7 -24 -43z"/>
<path d="M5630 3316 c0 -2 9 -6 20 -9 11 -3 18 -1 14 4 -5 9 -34 13 -34 5z"/>
<path d="M5738 3313 c6 -3 13 -21 13 -41 l2 -37 6 35 c9 50 38 53 44 6 l4 -36
-1 37 c-1 37 -2 38 -41 39 -22 1 -34 -1 -27 -3z"/>
<path d="M5846 3311 c-4 -5 3 -7 14 -4 23 6 26 13 6 13 -8 0 -17 -4 -20 -9z"/>
<path d="M5967 3313 c-3 -5 5 -8 18 -8 13 0 21 3 18 8 -2 4 -10 7 -18 7 -8 0
-16 -3 -18 -7z"/>
<path d="M6086 3311 c-4 -5 3 -7 14 -4 23 6 26 13 6 13 -8 0 -17 -4 -20 -9z"/>
<path d="M6250 3316 c0 -2 9 -6 20 -9 11 -3 18 -1 14 4 -5 9 -34 13 -34 5z"/>
<path d="M6323 3280 c0 -25 2 -35 4 -22 2 12 2 32 0 45 -2 12 -4 2 -4 -23z"/>
<path d="M6356 3306 c10 -8 21 -12 24 -10 5 6 -21 24 -34 24 -6 0 -1 -6 10
-14z"/>
<path d="M6390 3316 c0 -2 7 -7 16 -10 8 -3 12 -2 9 4 -6 10 -25 14 -25 6z"/>
<path d="M6480 3316 c0 -2 9 -6 20 -9 11 -3 18 -1 14 4 -5 9 -34 13 -34 5z"/>
<path d="M6610 3316 c0 -2 9 -6 20 -9 11 -3 18 -1 14 4 -5 9 -34 13 -34 5z"/>
<path d="M6726 3311 c-3 -4 6 -6 19 -3 14 2 25 6 25 8 0 8 -39 4 -44 -5z"/>
<path d="M6799 3303 c-12 -16 -12 -17 1 -7 8 6 22 14 30 17 13 5 12 6 -1 6 -9
1 -23 -7 -30 -16z"/>
<path d="M6920 3310 c8 -5 20 -10 25 -10 6 0 3 5 -5 10 -8 5 -19 10 -25 10 -5
0 -3 -5 5 -10z"/>
<path d="M6960 3316 c0 -2 7 -7 16 -10 8 -3 12 -2 9 4 -6 10 -25 14 -25 6z"/>
<path d="M5865 3290 l-30 -8 33 -1 c17 0 32 4 32 9 0 6 -1 9 -2 9 -2 -1 -16
-5 -33 -9z"/>
<path d="M6105 3290 l-30 -8 33 -1 c17 0 32 4 32 9 0 6 -1 9 -2 9 -2 -1 -16
-5 -33 -9z"/>
<path d="M6182 3291 c-11 -6 -10 -10 0 -19 11 -8 14 -7 14 9 0 10 0 19 -1 19
0 0 -6 -4 -13 -9z"/>
<path d="M6230 3280 c0 -21 20 -40 40 -39 9 0 6 4 -7 9 -31 13 -29 28 5 32 26
3 26 4 -5 9 -26 4 -33 2 -33 -11z"/>
<path d="M6000 3281 c0 -10 19 -25 25 -20 1 2 -3 10 -11 17 -8 7 -14 8 -14 3z"/>
<path d="M6510 3262 c0 -6 -8 -13 -17 -15 -16 -4 -16 -5 -1 -6 18 -1 34 16 24
26 -3 4 -6 1 -6 -5z"/>
<path d="M6802 3254 c9 -9 21 -15 27 -13 6 2 -2 10 -17 17 -25 11 -25 11 -10
-4z"/>
<path d="M5617 3248 c2 -5 13 -8 23 -8 10 0 21 3 23 8 3 4 -8 7 -23 7 -15 0
-26 -3 -23 -7z"/>
<path d="M5848 3248 c6 -6 18 -8 28 -6 14 3 12 5 -9 10 -19 3 -25 2 -19 -4z"/>
<path d="M6088 3248 c6 -6 18 -8 28 -6 14 3 12 5 -9 10 -19 3 -25 2 -19 -4z"/>
<path d="M6597 3248 c2 -5 13 -8 23 -8 10 0 21 3 23 8 3 4 -8 7 -23 7 -15 0
-26 -3 -23 -7z"/>
<path d="M6728 3248 c5 -5 16 -8 23 -6 8 3 3 7 -10 11 -17 4 -21 3 -13 -5z"/>
<path d="M5959 3237 c5 -5 19 -7 32 -5 20 3 19 5 -9 9 -20 3 -29 2 -23 -4z"/>
<path d="M5617 2513 c-3 -5 5 -8 18 -8 13 0 21 3 18 8 -2 4 -10 7 -18 7 -8 0
-16 -3 -18 -7z"/>
<path d="M5702 2508 c-7 -7 -12 -16 -12 -22 0 -5 6 -1 14 9 8 11 19 16 30 12
10 -4 15 -3 11 3 -8 14 -28 13 -43 -2z"/>
<path d="M5822 2508 c-7 -7 -12 -16 -12 -22 0 -5 6 -1 14 9 8 11 19 16 30 12
10 -4 15 -3 11 3 -8 14 -28 13 -43 -2z"/>
<path d="M5906 2512 c-3 -5 5 -8 17 -8 17 1 23 -6 28 -34 6 -35 6 -35 8 -4 1
31 -14 54 -35 54 -7 0 -15 -4 -18 -8z"/>
<path d="M5997 2513 c-3 -5 5 -8 18 -8 13 0 21 3 18 8 -2 4 -10 7 -18 7 -8 0
-16 -3 -18 -7z"/>
<path d="M6117 2513 c-3 -5 5 -8 18 -8 13 0 21 3 18 8 -2 4 -10 7 -18 7 -8 0
-16 -3 -18 -7z"/>
<path d="M6202 2508 c-7 -7 -12 -16 -12 -22 0 -5 6 -1 14 9 8 11 19 16 30 12
10 -4 15 -3 11 3 -8 14 -28 13 -43 -2z"/>
<path d="M6286 2512 c-3 -5 5 -8 17 -8 17 1 23 -6 28 -34 6 -35 6 -35 8 -4 1
31 -14 54 -35 54 -7 0 -15 -4 -18 -8z"/>
<path d="M6436 2512 c-3 -5 5 -8 17 -8 17 1 23 -6 28 -34 6 -35 6 -35 8 -4 1
31 -14 54 -35 54 -7 0 -15 -4 -18 -8z"/>
<path d="M6527 2513 c-3 -5 5 -8 18 -8 13 0 21 3 18 8 -2 4 -10 7 -18 7 -8 0
-16 -3 -18 -7z"/>
<path d="M5603 2461 c2 -38 29 -63 47 -45 8 8 4 10 -12 10 -19 -1 -24 6 -30
34 l-6 35 1 -34z"/>
<path d="M5983 2461 c2 -38 29 -63 47 -45 8 8 4 10 -12 10 -19 -1 -24 6 -30
34 l-6 35 1 -34z"/>
<path d="M6103 2461 c2 -38 29 -63 47 -45 8 8 4 10 -12 10 -19 -1 -24 6 -30
34 l-6 35 1 -34z"/>
<path d="M6513 2461 c2 -38 29 -63 47 -45 8 8 4 10 -12 10 -19 -1 -24 6 -30
34 l-6 35 1 -34z"/>
<path d="M5661 2464 c0 -11 3 -14 6 -6 3 7 2 16 -1 19 -3 4 -6 -2 -5 -13z"/>
<path d="M5891 2464 c0 -11 3 -14 6 -6 3 7 2 16 -1 19 -3 4 -6 -2 -5 -13z"/>
<path d="M6041 2464 c0 -11 3 -14 6 -6 3 7 2 16 -1 19 -3 4 -6 -2 -5 -13z"/>
<path d="M6161 2464 c0 -11 3 -14 6 -6 3 7 2 16 -1 19 -3 4 -6 -2 -5 -13z"/>
<path d="M6271 2464 c0 -11 3 -14 6 -6 3 7 2 16 -1 19 -3 4 -6 -2 -5 -13z"/>
<path d="M6421 2464 c0 -11 3 -14 6 -6 3 7 2 16 -1 19 -3 4 -6 -2 -5 -13z"/>
<path d="M6571 2464 c0 -11 3 -14 6 -6 3 7 2 16 -1 19 -3 4 -6 -2 -5 -13z"/>
<path d="M6378 2453 c7 -3 16 -2 19 1 4 3 -2 6 -13 5 -11 0 -14 -3 -6 -6z"/>
<path d="M5528 2418 c5 -5 16 -8 23 -6 8 3 3 7 -10 11 -17 4 -21 3 -13 -5z"/>
<path d="M5907 2418 c2 -5 10 -8 18 -8 8 0 16 3 18 8 3 4 -5 7 -18 7 -13 0
-21 -3 -18 -7z"/>
<path d="M6287 2418 c2 -5 10 -8 18 -8 8 0 16 3 18 8 3 4 -5 7 -18 7 -13 0
-21 -3 -18 -7z"/>
<path d="M6437 2418 c2 -5 10 -8 18 -8 8 0 16 3 18 8 3 4 -5 7 -18 7 -13 0
-21 -3 -18 -7z"/>
<path d="M6950 1770 c0 -5 5 -10 10 -10 6 0 10 5 10 10 0 6 -4 10 -10 10 -5 0
-10 -4 -10 -10z"/>
</g>
</svg>
