<svg id="Capa_1" enable-background="new 0 0 512 512" height="512" viewBox="0 0 512 512" width="512" xmlns="http://www.w3.org/2000/svg" xmlns:xlink="http://www.w3.org/1999/xlink"><linearGradient id="lg1"><stop offset="0" stop-color="#ff4747"/><stop offset="1" stop-color="#fff200"/></linearGradient><linearGradient id="SVGID_1_" gradientUnits="userSpaceOnUse" x1="74.98" x2="437.019" xlink:href="#lg1" y1="437.019" y2="74.98"/><radialGradient id="SVGID_2_" cx="-7323.445" cy="-5179.924" gradientTransform="matrix(.707 -.707 .489 .489 7966.107 -2390.809)" gradientUnits="userSpaceOnUse" r="377.594"><stop offset="0" stop-color="#ff4747" stop-opacity=".7"/><stop offset=".0092" stop-color="#ff4b48" stop-opacity=".693"/><stop offset=".1297" stop-color="#ff7955" stop-opacity=".606"/><stop offset=".2547" stop-color="#ffa160" stop-opacity=".515"/><stop offset=".3823" stop-color="#ffc168" stop-opacity=".422"/><stop offset=".5136" stop-color="#ffda6f" stop-opacity=".326"/><stop offset=".65" stop-color="#ffec74" stop-opacity=".227"/><stop offset=".7946" stop-color="#fff777" stop-opacity=".122"/><stop offset=".9617" stop-color="#fffa78" stop-opacity="0"/></radialGradient><linearGradient id="lg2"><stop offset="0" stop-color="#fffa78"/><stop offset=".1966" stop-color="#fffb8d"/><stop offset=".601" stop-color="#fffdc4"/><stop offset="1" stop-color="#fff"/></linearGradient><linearGradient id="SVGID_3_" gradientTransform="matrix(.707 .707 -.707 .707 -2967.558 112.849)" gradientUnits="userSpaceOnUse" x1="2388.584" x2="2388.584" xlink:href="#lg2" y1="-2264.271" y2="-2488.771"/><linearGradient id="SVGID_4_" gradientUnits="userSpaceOnUse" x1="202.376" x2="406.95" xlink:href="#lg2" y1="287.795" y2="83.221"/><linearGradient id="SVGID_5_" gradientUnits="userSpaceOnUse" x1="350.96" x2="412.953" y1="161.305" y2="99.311"><stop offset="0" stop-color="#ffcb00"/><stop offset=".0157" stop-color="#ffcf10" stop-opacity=".984"/><stop offset=".0607" stop-color="#ffd939" stop-opacity=".939"/><stop offset=".1112" stop-color="#ffe25f" stop-opacity=".889"/><stop offset=".1662" stop-color="#feea7f" stop-opacity=".834"/><stop offset=".227" stop-color="#fef19b" stop-opacity=".773"/><stop offset=".2957" stop-color="#fef6b1" stop-opacity=".704"/><stop offset=".3758" stop-color="#fefac1" stop-opacity=".624"/><stop offset=".475" stop-color="#fefdcd" stop-opacity=".525"/><stop offset=".614" stop-color="#feffd4" stop-opacity=".386"/><stop offset="1" stop-color="#feffd6" stop-opacity="0"/></linearGradient><linearGradient id="SVGID_6_" gradientUnits="userSpaceOnUse" x1="96.091" x2="423.728" xlink:href="#lg2" y1="443.57" y2="115.933"/><linearGradient id="SVGID_7_" gradientUnits="userSpaceOnUse" x1="36.237" x2="192.565" xlink:href="#lg2" y1="448.678" y2="292.351"/><linearGradient id="SVGID_8_" gradientTransform="matrix(.707 .707 -.707 .707 -2967.558 112.849)" gradientUnits="userSpaceOnUse" x1="2384.856" x2="2384.856" xlink:href="#lg1" y1="-1466.323" y2="-2441.428"/><linearGradient id="SVGID_9_" gradientTransform="matrix(.707 .707 -.707 .707 -2967.558 112.849)" gradientUnits="userSpaceOnUse" x1="2361.469" x2="2361.469" xlink:href="#lg1" y1="-1008.142" y2="-2321.863"/><linearGradient id="SVGID_10_" gradientUnits="userSpaceOnUse" x1="326.667" x2="441.357" y1="223.789" y2="109.1"><stop offset="0" stop-color="#fffa78"/><stop offset=".1943" stop-color="#fffb8d"/><stop offset=".5937" stop-color="#fffdc4"/><stop offset=".988" stop-color="#fff"/></linearGradient><linearGradient id="SVGID_11_" gradientUnits="userSpaceOnUse" x1="258.418" x2="339.108" xlink:href="#lg2" y1="215.655" y2="134.966"/><linearGradient id="SVGID_12_" gradientTransform="matrix(.707 .707 -.707 .707 -2967.558 112.849)" gradientUnits="userSpaceOnUse" x1="2380.81" x2="2380.81" xlink:href="#lg2" y1="-1564.867" y2="-2293.381"/><linearGradient id="SVGID_13_" gradientUnits="userSpaceOnUse" x1="157.914" x2="398.339" xlink:href="#lg2" y1="354.351" y2="113.926"/><g><circle cx="256" cy="256" fill="url(#SVGID_1_)" r="256"/><circle cx="256" cy="256" fill="url(#SVGID_2_)" r="256"/><path d="m416.025 96.24c-4.048-4.049-8.828-6.853-13.813-8.388-22.781 22.921-46.281 46.528-70.181 70.504 10.92 10.954 21.875 21.891 32.836 32.785 17.841-17.729 35.489-35.228 52.81-52.366 11.502-11.357 10.633-30.242-1.652-42.535z" fill="url(#SVGID_3_)"/><path d="m402.212 87.852c-10.126-3.125-21.109-.961-28.721 6.735-17.139 17.322-34.638 34.97-52.367 52.811 7.262 7.308 14.545 14.612 21.838 21.906 17.778-17.778 35.344-35.345 52.568-52.568 7.654-7.652 9.79-18.7 6.682-28.884z" fill="url(#SVGID_4_)"/><path d="m416.025 96.24c-12.289-12.281-31.18-13.153-42.534-1.653-17.139 17.322-34.638 34.97-52.367 52.811 14.525 14.615 29.128 29.218 43.744 43.744 17.841-17.729 35.489-35.228 52.81-52.366 11.501-11.358 10.632-30.243-1.653-42.536z" fill="url(#SVGID_5_)"/><path d="m179.557 310.89c-29.887 34.659-59.261 68.8-87.306 101.718 3.706 3.699 7.408 7.404 11.103 11.114 2.238 2.248 5.483 3.04 8.233 1.996 28.016-10.604 56.38-21.823 85.001-33.431-5.717-27.171-11.423-54.31-17.031-81.397z" fill="url(#SVGID_6_)"/><path d="m97.797 411.89c23.473-15.2 47.372-30.96 71.548-47.058 3.307-17.951 6.72-35.932 10.212-53.941-19.871 1.667-39.731 3.268-59.58 4.787-11.608 28.62-22.827 56.985-33.431 85.001-1.042 2.75-.249 5.995 1.997 8.233 1.236 1.232 2.472 2.464 3.708 3.697 1.056 1.053 3.241.774 5.546-.719z" fill="url(#SVGID_7_)"/><path d="m392.404 196.482c5.908-5.831 5.735-15.384-.349-21.41-9.177-9.088-18.348-18.216-27.497-27.365-43.099 21.141-86.857 43.329-130.794 65.615-21.789 50.748-43.673 101.429-64.418 151.51 9.113 9.144 18.199 18.302 27.243 27.456 49.289-49.908 100.674-101.431 151.276-151.692-.905-8.08-1.825-16.163-2.758-24.248 8.608.45 17.216.907 25.825 1.369 7.185-7.116 14.345-14.196 21.472-21.235z" fill="url(#SVGID_8_)"/><path d="m364.944 169.237c5.874-5.851 5.679-15.462-.386-21.53-9.149-9.148-18.276-18.32-27.365-27.496-6.026-6.085-15.58-6.256-21.41-.35-7.038 7.126-14.119 14.288-21.234 21.473 1.746 9.905 3.492 19.808 5.234 29.708-9.379-2.228-18.75-4.444-28.113-6.641-50.261 50.602-101.785 101.986-151.693 151.276 16.477 16.279 32.965 32.696 49.368 49.155 21.195-21.271 42.743-42.87 64.419-64.57-3.624-3.628-7.25-7.256-10.877-10.884 36.625-36.624 73.576-73.576 109.762-109.761 3.642 3.642 7.286 7.28 10.931 10.917 7.152-7.135 14.276-14.236 21.364-21.297z" fill="url(#SVGID_9_)"/><path d="m309.703 202.562c12.714 12.713 25.449 25.406 38.161 38.033 7.711-7.66 15.404-15.288 23.068-22.879-12.761-12.64-25.537-25.355-38.283-38.1-7.618 7.618-15.271 15.27-22.946 22.946z" fill="url(#SVGID_10_)"/><path d="m332.648 179.616c-12.746-12.746-25.461-25.522-38.1-38.283-7.59 7.664-15.22 15.357-22.878 23.067 12.626 12.711 25.319 25.447 38.033 38.161 7.675-7.675 15.328-15.327 22.945-22.945z" fill="url(#SVGID_11_)"/><path d="m343.338 168.926c-6.035-6.035-15.707-6.16-21.606-.242-14.265 14.306-28.655 28.724-43.103 43.189 7.248 7.257 14.505 14.513 21.762 21.762 14.465-14.449 28.884-28.838 43.189-43.104 5.919-5.9 5.793-15.568-.242-21.605z" fill="url(#SVGID_12_)"/><path d="m300.337 211.927c-6.006-6.007-15.733-6.036-21.708-.053-22.154 22.18-44.443 44.47-66.626 66.627-5.994 5.985-5.964 15.694.051 21.709 6.015 6.013 15.724 6.048 21.71.051 22.157-22.183 44.447-44.472 66.627-66.625 5.984-5.973 5.952-15.7-.054-21.709z" fill="url(#SVGID_13_)"/></g></svg>